<svg width="32" height="32" viewBox="0 0 32 32" fill="none" xmlns="http://www.w3.org/2000/svg">
<circle cx="16" cy="16" r="16" fill="#EDF7F0"/>
<path d="M10 22L14 18M22 14.6667C22 15.2795 21.8793 15.8863 21.6448 16.4525C21.4102 17.0187 21.0665 17.5332 20.6332 17.9665C20.1998 18.3998 19.6854 18.7436 19.1192 18.9781C18.553 19.2126 17.9462 19.3333 17.3333 19.3333C16.7205 19.3333 16.1137 19.2126 15.5475 18.9781C14.9813 18.7436 14.4668 18.3998 14.0335 17.9665C13.6002 17.5332 13.2564 17.0187 13.0219 16.4525C12.7874 15.8863 12.6667 15.2795 12.6667 14.6667C12.6667 14.0538 12.7874 13.447 13.0219 12.8808C13.2564 12.3146 13.6002 11.8002 14.0335 11.3668C14.4668 10.9335 14.9813 10.5898 15.5475 10.3552C16.1137 10.1207 16.7205 10 17.3333 10C17.9462 10 18.553 10.1207 19.1192 10.3552C19.6854 10.5898 20.1998 10.9335 20.6332 11.3668C21.0665 11.8002 21.4102 12.3146 21.6448 12.8808C21.8793 13.447 22 14.0538 22 14.6667Z" stroke="#126C3E" stroke-width="2" stroke-linecap="round" stroke-linejoin="round"/>
</svg>
