<svg width="24" height="24" viewBox="0 0 24 24" fill="none" xmlns="http://www.w3.org/2000/svg">
<g clip-path="url(#clip0_762_39)">
<path d="M12 24C18.6274 24 24 18.6274 24 12C24 5.37258 18.6274 0 12 0C5.37258 0 0 5.37258 0 12C0 18.6274 5.37258 24 12 24Z" fill="#FFE3DE"/>
<path d="M8.38752 6.47999C7.94376 6.47999 7.55194 6.79535 7.47019 7.24895C7.36493 7.83791 7.19995 8.88623 7.19995 9.71999C7.19995 10.6063 7.65221 11.3854 8.33419 11.8339C8.52686 11.9614 8.62219 12.1255 8.62219 12.2659V12.5611C8.62219 12.5741 8.62147 12.587 8.62003 12.6C8.60083 12.7872 8.51266 13.6289 8.42947 14.4943C8.34768 15.3475 8.26661 16.2583 8.26661 16.56C8.26661 16.9419 8.41646 17.3082 8.6832 17.5782C8.94989 17.8483 9.31166 18 9.68885 18C10.066 18 10.4278 17.8483 10.6945 17.5782C10.9612 17.3082 11.111 16.9419 11.111 16.56C11.111 16.2576 11.03 15.3475 10.9482 14.4943C10.8874 13.8628 10.8239 13.2316 10.7577 12.6007L10.7555 12.5611V12.2659C10.7555 12.1248 10.8508 11.9606 11.0435 11.8339C11.3916 11.6052 11.6777 11.292 11.8758 10.9228C12.0739 10.5537 12.1777 10.1402 12.1777 9.71999C12.1777 8.88623 12.0128 7.83791 11.9075 7.24895C11.868 7.03218 11.7544 6.83639 11.5867 6.69585C11.4191 6.55526 11.2079 6.47889 10.9902 6.47999C10.7484 6.47999 10.5279 6.57143 10.3616 6.72191C10.1714 6.56543 9.93389 6.48004 9.68885 6.47999C9.43353 6.47999 9.19958 6.57071 9.01613 6.72191C8.84347 6.56562 8.61912 6.47946 8.38752 6.47999ZM9.33326 7.55999C9.33326 7.46452 9.37075 7.37294 9.43742 7.30545C9.50409 7.23791 9.59453 7.19999 9.68885 7.19999C9.78312 7.19999 9.8736 7.23791 9.94027 7.30545C10.0069 7.37294 10.0444 7.46452 10.0444 7.55999V9.71999C10.0444 9.81546 10.0819 9.90705 10.1485 9.97454C10.2152 10.0421 10.3056 10.08 10.4 10.08C10.4942 10.08 10.5847 10.0421 10.6513 9.97454C10.7181 9.90705 10.7555 9.81546 10.7555 9.71999V7.43759C10.7555 7.40639 10.7616 7.37553 10.7734 7.34668C10.7852 7.31783 10.8024 7.29167 10.8242 7.26959C10.846 7.24751 10.8719 7.23004 10.9004 7.21809C10.9288 7.20614 10.9594 7.19999 10.9902 7.19999C11.1018 7.19999 11.1893 7.27775 11.2078 7.37783C11.3123 7.96319 11.4666 8.95607 11.4666 9.71999C11.4667 10.0203 11.3925 10.3158 11.2509 10.5796C11.1093 10.8434 10.9048 11.0672 10.656 11.2306C10.3438 11.4358 10.0444 11.7965 10.0444 12.2659V12.5611C10.0444 12.5995 10.0463 12.6379 10.0501 12.6763C10.07 12.8621 10.1575 13.7016 10.2407 14.5642C10.3246 15.439 10.4 16.303 10.4 16.56C10.4 16.7509 10.325 16.9341 10.1917 17.0691C10.0583 17.2042 9.87744 17.28 9.68885 17.28C9.50025 17.28 9.31939 17.2042 9.186 17.0691C9.05265 16.9341 8.97773 16.7509 8.97773 16.56C8.97773 16.303 9.05309 15.439 9.13704 14.5642C9.22022 13.7016 9.30768 12.8621 9.3276 12.6763C9.33139 12.6379 9.33326 12.5995 9.33326 12.5611V12.2659C9.33326 11.7965 9.03389 11.4358 8.72174 11.2306C8.47291 11.0672 8.26838 10.8434 8.12678 10.5796C7.98518 10.3158 7.91102 10.0203 7.91107 9.71999C7.91107 8.95679 8.06539 7.96319 8.16989 7.37783C8.17963 7.32686 8.20694 7.28102 8.24688 7.24842C8.28686 7.21588 8.33693 7.1987 8.38824 7.19999C8.45035 7.20018 8.50982 7.22529 8.55369 7.26983C8.59757 7.31438 8.62219 7.37471 8.62219 7.43759V9.71999C8.62219 9.81546 8.65963 9.90705 8.7263 9.97454C8.79297 10.0421 8.88341 10.08 8.97773 10.08C9.07205 10.08 9.16248 10.0421 9.22915 9.97454C9.29582 9.90705 9.33326 9.81546 9.33326 9.71999V7.55999ZM12.8889 9.71999C12.8889 8.8607 13.226 8.03658 13.8261 7.429C14.4262 6.82137 15.2401 6.47999 16.0888 6.47999C16.1832 6.47999 16.2736 6.51791 16.3403 6.58545C16.4069 6.65294 16.4444 6.74452 16.4444 6.83999V11.8642L16.4586 12.0254C16.5141 12.6724 16.5681 13.3194 16.6208 13.9666C16.7089 15.0516 16.8 16.2425 16.8 16.56C16.8 16.9419 16.6501 17.3082 16.3834 17.5782C16.1167 17.8483 15.7549 18 15.3777 18C15.0005 18 14.6388 17.8483 14.3721 17.5782C14.1053 17.3082 13.9555 16.9419 13.9555 16.56C13.9555 16.2432 14.0465 15.0516 14.1347 13.9666C14.1788 13.4186 14.2236 12.8887 14.257 12.4963L14.2784 12.24H13.9555C13.6726 12.24 13.4013 12.1262 13.2012 11.9237C13.0012 11.7211 12.8889 11.4465 12.8889 11.16V9.71999ZM15.0207 11.9117L15.0058 12.0881L14.9653 12.5582C14.9318 12.9499 14.8871 13.4784 14.843 14.0256C14.7534 15.1322 14.6666 16.2806 14.6666 16.56C14.6666 16.7509 14.7415 16.9341 14.8749 17.0691C15.0083 17.2042 15.1891 17.28 15.3777 17.28C15.5663 17.28 15.7472 17.2042 15.8806 17.0691C16.0139 16.9341 16.0888 16.7509 16.0888 16.56C16.0888 16.2806 16.0021 15.1322 15.9125 14.0256C15.8597 13.3796 15.8054 12.7338 15.7497 12.0881L15.7347 11.9124V11.9117L15.7333 11.88V7.22519C15.1408 7.31178 14.599 7.61169 14.2072 8.0699C13.8154 8.5281 13.5998 9.1139 13.5999 9.71999V11.16C13.5999 11.2555 13.6374 11.347 13.7041 11.4145C13.7708 11.4821 13.8612 11.52 13.9555 11.52H14.6666C14.7159 11.52 14.7648 11.5304 14.8099 11.5505C14.855 11.5707 14.8956 11.6001 14.9288 11.6369C14.9621 11.6737 14.9875 11.7172 15.0034 11.7645C15.0192 11.8118 15.0251 11.8619 15.0207 11.9117Z" fill="#EF6848"/>
</g>
<defs>
<clipPath id="clip0_762_39">
<rect width="24" height="24" fill="white"/>
</clipPath>
</defs>
</svg>
