<svg width="48" height="48" viewBox="0 0 48 48" fill="none" xmlns="http://www.w3.org/2000/svg">
<path d="M24.0001 28.2746C26.3611 28.2746 28.2751 26.3606 28.2751 23.9996C28.2751 21.6386 26.3611 19.7246 24.0001 19.7246C21.6391 19.7246 19.7251 21.6386 19.7251 23.9996C19.7251 26.3606 21.6391 28.2746 24.0001 28.2746Z" fill="#61DAFB"/>
<path d="M40.2374 16.9496C39.4124 16.6496 38.5499 16.3496 37.6499 16.0871C37.8749 15.1871 38.0624 14.2871 38.2124 13.4246C38.9999 8.47461 38.1374 4.98711 35.7374 3.63711C35.0249 3.22461 34.2374 3.03711 33.3374 3.03711C30.7124 3.03711 27.3749 4.98711 23.9999 8.24961C20.6249 4.98711 17.2874 3.03711 14.6624 3.03711C13.7624 3.03711 12.9749 3.22461 12.2624 3.63711C9.8624 5.02461 8.9999 8.51211 9.7874 13.4246C9.9374 14.2871 10.1249 15.1871 10.3499 16.0871C9.4499 16.3496 8.5874 16.6121 7.7624 16.9496C3.0749 18.7496 0.524902 21.2246 0.524902 23.9996C0.524902 26.7746 3.1124 29.2496 7.7624 31.0496C8.5874 31.3496 9.4499 31.6496 10.3499 31.9121C10.1249 32.8121 9.9374 33.7121 9.7874 34.5746C8.9999 39.5246 9.8624 43.0121 12.2624 44.3621C12.9749 44.7746 13.7624 44.9621 14.6624 44.9621C17.3249 44.9621 20.6624 43.0121 23.9999 39.7496C27.3749 43.0121 30.7124 44.9621 33.3374 44.9621C34.2374 44.9621 35.0249 44.7746 35.7374 44.3621C38.1374 42.9746 38.9999 39.4871 38.2124 34.5746C38.0624 33.7121 37.8749 32.8121 37.6499 31.9121C38.5499 31.6496 39.4124 31.3871 40.2374 31.0496C44.9249 29.2496 47.4749 26.7746 47.4749 23.9996C47.4749 21.2246 44.9249 18.7496 40.2374 16.9496ZM34.6874 5.51211C36.2249 6.41211 36.7499 9.18711 36.1124 13.1246C35.9999 13.9121 35.8124 14.7371 35.5874 15.5996C33.6374 15.1496 31.5749 14.8496 29.3999 14.6621C28.1249 12.8621 26.8124 11.2496 25.4999 9.78711C28.2749 7.04961 31.0874 5.17461 33.3749 5.17461C33.8624 5.17461 34.3124 5.28711 34.6874 5.51211ZM30.4874 27.7496C29.8124 28.9496 29.0249 30.1496 28.1999 31.3496C26.8124 31.4621 25.4249 31.4996 23.9999 31.4996C22.5374 31.4996 21.1499 31.4621 19.7999 31.3496C18.9749 30.1496 18.2249 28.9496 17.5499 27.7496C16.8374 26.5121 16.1624 25.2371 15.5624 23.9996C16.1624 22.7621 16.8374 21.4871 17.5499 20.2496C18.2249 19.0496 19.0124 17.8496 19.8374 16.6496C21.2249 16.5371 22.6124 16.4996 24.0374 16.4996C25.4999 16.4996 26.8874 16.5371 28.2374 16.6496C29.0624 17.8496 29.8124 19.0496 30.4874 20.2496C31.1999 21.4871 31.8749 22.7621 32.4749 23.9996C31.8374 25.2371 31.1999 26.4746 30.4874 27.7496ZM33.5999 26.5121C34.1624 27.8246 34.6124 29.0996 35.0249 30.3746C33.7499 30.6746 32.3999 30.8996 30.9749 31.0871C31.4249 30.3746 31.9124 29.6246 32.3249 28.8371C32.7749 28.0496 33.1874 27.2621 33.5999 26.5121ZM23.9999 36.6746C23.0999 35.6996 22.2374 34.6496 21.4124 33.5621C22.2749 33.5996 23.1374 33.6371 23.9999 33.6371C24.8624 33.6371 25.7249 33.5996 26.5874 33.5621C25.7624 34.6496 24.8999 35.6996 23.9999 36.6746ZM17.0249 31.0496C15.5999 30.8621 14.2499 30.6371 12.9749 30.3371C13.3874 29.0996 13.8374 27.7871 14.3999 26.4746C14.8124 27.2246 15.2249 28.0121 15.6749 28.7621C16.1249 29.5871 16.5749 30.2996 17.0249 31.0496ZM14.3999 21.4871C13.8374 20.1746 13.3874 18.8996 12.9749 17.6246C14.2499 17.3246 15.5999 17.0996 17.0249 16.9121C16.5749 17.6246 16.0874 18.3746 15.6749 19.1621C15.2249 19.9496 14.8124 20.7371 14.3999 21.4871ZM23.9999 11.3246C24.8999 12.2996 25.7624 13.3496 26.5874 14.4371C25.7249 14.3996 24.8624 14.3621 23.9999 14.3621C23.1374 14.3621 22.2749 14.3996 21.4124 14.4371C22.2374 13.3496 23.0999 12.2996 23.9999 11.3246ZM32.3249 19.1996L30.9749 16.9496C32.3999 17.1371 33.7499 17.3621 35.0249 17.6621C34.6124 18.8996 34.1624 20.2121 33.5999 21.5246C33.1874 20.7371 32.7749 19.9496 32.3249 19.1996ZM11.8874 13.1246C11.2499 9.18711 11.7749 6.41211 13.3124 5.51211C13.6874 5.28711 14.1374 5.17461 14.6249 5.17461C16.8749 5.17461 19.6874 7.01211 22.4999 9.78711C21.1874 11.2121 19.8749 12.8621 18.5999 14.6621C16.4249 14.8496 14.3624 15.1871 12.4124 15.5996C12.1874 14.7371 12.0374 13.9121 11.8874 13.1246ZM2.6249 23.9996C2.6249 22.2371 4.7624 20.3621 8.5124 18.9746C9.2624 18.6746 10.0874 18.4121 10.9124 18.1871C11.5124 20.0621 12.2624 22.0496 13.1624 24.0371C12.2624 26.0246 11.4749 27.9746 10.9124 29.8496C5.7374 28.3496 2.6249 26.0996 2.6249 23.9996ZM13.3124 42.4871C11.7749 41.5871 11.2499 38.8121 11.8874 34.8746C11.9999 34.0871 12.1874 33.2621 12.4124 32.3996C14.3624 32.8496 16.4249 33.1496 18.5999 33.3371C19.8749 35.1371 21.1874 36.7496 22.4999 38.2121C19.7249 40.9496 16.9124 42.8246 14.6249 42.8246C14.1374 42.8246 13.6874 42.7121 13.3124 42.4871ZM36.1124 34.8746C36.7499 38.8121 36.2249 41.5871 34.6874 42.4871C34.3124 42.7121 33.8624 42.8246 33.3749 42.8246C31.1249 42.8246 28.3124 40.9871 25.4999 38.2121C26.8124 36.7871 28.1249 35.1371 29.3999 33.3371C31.5749 33.1496 33.6374 32.8121 35.5874 32.3996C35.8124 33.2621 35.9624 34.0871 36.1124 34.8746ZM39.4874 29.0246C38.7374 29.3246 37.9124 29.5871 37.0874 29.8121C36.4874 27.9371 35.7374 25.9496 34.8374 23.9621C35.7374 21.9746 36.5249 20.0246 37.0874 18.1496C42.2624 19.6496 45.3749 21.8996 45.3749 23.9996C45.3749 25.7621 43.1999 27.6371 39.4874 29.0246Z" fill="#61DAFB"/>
</svg>
