<svg width="48" height="48" viewBox="0 0 48 48" fill="none" xmlns="http://www.w3.org/2000/svg">
<path d="M6 42L18 30M42 20C42 21.8385 41.6379 23.659 40.9343 25.3576C40.2307 27.0561 39.1995 28.5995 37.8995 29.8995C36.5995 31.1995 35.0561 32.2307 33.3576 32.9343C31.659 33.6379 29.8385 34 28 34C26.1615 34 24.341 33.6379 22.6424 32.9343C20.9439 32.2307 19.4005 31.1995 18.1005 29.8995C16.8005 28.5995 15.7693 27.0561 15.0657 25.3576C14.3621 23.659 14 21.8385 14 20C14 18.1615 14.3621 16.341 15.0657 14.6424C15.7693 12.9439 16.8005 11.4005 18.1005 10.1005C19.4005 8.80048 20.9439 7.76925 22.6424 7.06569C24.341 6.36212 26.1615 6 28 6C29.8385 6 31.659 6.36212 33.3576 7.06569C35.0561 7.76925 36.5995 8.80048 37.8995 10.1005C39.1995 11.4005 40.2307 12.9439 40.9343 14.6424C41.6379 16.341 42 18.1615 42 20Z" stroke="#8A8379" stroke-width="4" stroke-linecap="round" stroke-linejoin="round"/>
</svg>
