<svg width="24" height="24" viewBox="0 0 24 24" fill="none" xmlns="http://www.w3.org/2000/svg">
<g clip-path="url(#clip0_762_43)">
<path d="M12 24C18.6274 24 24 18.6274 24 12C24 5.37258 18.6274 0 12 0C5.37258 0 0 5.37258 0 12C0 18.6274 5.37258 24 12 24Z" fill="#DFF2DF"/>
<path d="M7.62793 11.3492V12.8923C7.62793 14.8319 7.62793 15.802 8.23076 16.4043C8.83359 17.0066 9.80315 17.0071 11.7428 17.0071H12.2571C14.1968 17.0071 15.1669 17.0071 15.7692 16.4043C16.3715 15.8015 16.372 14.8319 16.372 12.8923V11.3492" stroke="#155F3A" stroke-width="0.96"/>
<path d="M10.714 6.71997H13.2858L13.6212 10.0721C13.6433 10.2982 13.6178 10.5266 13.5464 10.7423C13.4749 10.9581 13.3592 11.1565 13.2065 11.3248C13.0538 11.4931 12.8676 11.6277 12.6598 11.7197C12.452 11.8118 12.2272 11.8593 12 11.8593C11.7727 11.8593 11.5479 11.8118 11.3401 11.7197C11.1323 11.6277 10.9461 11.4931 10.7934 11.3248C10.6407 11.1565 10.5249 10.9581 10.4535 10.7423C10.3821 10.5266 10.3566 10.2982 10.3787 10.0721L10.714 6.71997Z" stroke="#155F3A" stroke-width="0.96"/>
<path d="M7.54047 8.44355C7.63206 7.98578 7.67785 7.75691 7.77092 7.57125C7.86793 7.37786 8.00454 7.20703 8.17182 7.06984C8.3391 6.93271 8.5334 6.83224 8.74201 6.77503C8.94265 6.71997 9.17617 6.71997 9.64316 6.71997H10.7141L10.3412 10.4465C10.3215 10.6598 10.2585 10.8667 10.156 11.0549C10.0536 11.2429 9.91378 11.4081 9.74526 11.5403C9.57678 11.6725 9.38305 11.7689 9.17597 11.8236C8.9689 11.8783 8.75285 11.8901 8.54103 11.8585C8.32921 11.8268 8.12607 11.7522 7.9441 11.6393C7.76209 11.5264 7.60508 11.3775 7.48263 11.2018C7.36018 11.0261 7.27484 10.8272 7.23193 10.6174C7.18897 10.4076 7.1893 10.1912 7.23289 9.98152L7.54047 8.44355ZM16.4594 8.44355C16.3679 7.98578 16.3221 7.75691 16.229 7.57125C16.132 7.37786 15.9954 7.20703 15.8281 7.06984C15.6608 6.93271 15.4665 6.83224 15.2579 6.77503C15.0573 6.71997 14.8238 6.71997 14.3568 6.71997H13.2858L13.6587 10.4465C13.6784 10.6598 13.7414 10.8667 13.8439 11.0549C13.9464 11.2429 14.0861 11.4081 14.2547 11.5403C14.4231 11.6725 14.6169 11.7689 14.8239 11.8236C15.031 11.8783 15.2471 11.8901 15.4589 11.8585C15.6707 11.8268 15.8738 11.7522 16.0558 11.6393C16.2378 11.5264 16.3948 11.3775 16.5173 11.2018C16.6397 11.0261 16.7251 10.8272 16.768 10.6174C16.811 10.4076 16.8106 10.1912 16.767 9.98152L16.4594 8.44355Z" stroke="#155F3A" stroke-width="0.96"/>
<path d="M10.7141 16.7499V15.2069C10.7141 14.726 10.7141 14.4857 10.8175 14.3067C10.8852 14.1895 10.9826 14.0921 11.0999 14.0244C11.2789 13.921 11.5191 13.921 12 13.921C12.4809 13.921 12.7211 13.921 12.9001 14.0244C13.0174 14.0921 13.1148 14.1895 13.1825 14.3067C13.2859 14.4857 13.2859 14.726 13.2859 15.2069V16.7499" stroke="#155F3A" stroke-width="0.96" stroke-linecap="round"/>
</g>
<defs>
<clipPath id="clip0_762_43">
<rect width="24" height="24" fill="white"/>
</clipPath>
</defs>
</svg>
